<?xml version="1.0" standalone="no"?><!DOCTYPE svg PUBLIC "-//W3C//DTD SVG 1.1//EN" "http://www.w3.org/Graphics/SVG/1.1/DTD/svg11.dtd"><svg t="1614001225477" class="icon" viewBox="0 0 1024 1024" version="1.1" xmlns="http://www.w3.org/2000/svg" p-id="2460" xmlns:xlink="http://www.w3.org/1999/xlink" width="200" height="200"><defs><style type="text/css"></style></defs><path d="M406.159785 980.181574a98.699119 43.818426 0 1 0 197.398239 0 98.699119 43.818426 0 1 0-197.398239 0Z" fill="#2CCFA7" opacity=".2" p-id="2461"></path><path d="M511.99151 0a322.985938 322.985938 0 0 1 322.985938 322.985938c0 300.753739-310.227993 334.613431-325.83898 643.468734-17.441241-308.020923-320.132895-339.754291-320.132896-643.468734a322.985938 322.985938 0 0 1 322.985938-322.985938z" fill="#2CCFA7" p-id="2462"></path><path d="M698.758129 304.414246H605.119122V167.925772a15.664818 15.664818 0 0 0-15.664818-15.664818h-253.005651a15.664818 15.664818 0 0 0-15.664818 15.664818v358.971954a15.664818 15.664818 0 0 0 15.664818 15.664818h362.201814a15.664818 15.664818 0 0 0 15.664818-15.664818v-206.818662a15.664818 15.664818 0 0 0-15.557156-15.664818zM356.150795 507.303246V187.520252h213.709029v116.893994h-0.188408v202.889z m322.985938 0h-74.017611V339.673544h74.044526z" fill="#FFFFFF" p-id="2463"></path><path d="M350.498541 161.492969h242.239454v349.901432H350.498541z" fill="#FFFFFF" p-id="2464"></path><path d="M565.8225 322.985938h134.577474v215.323958h-134.577474z" fill="#FFFFFF" p-id="2465"></path><path d="M604.930714 296.070443h34.075016v269.154948h-34.075016z" fill="#2CCFA7" p-id="2466"></path><path d="M479.558339 228.081903H447.448154a4.60255 4.60255 0 0 0-4.575634 4.575634v64.597188h-64.597188a4.60255 4.60255 0 0 0-4.575634 4.575634v32.110185a4.60255 4.60255 0 0 0 4.575634 4.575634h64.597188v64.597188a4.60255 4.60255 0 0 0 4.575634 4.575634h32.110185a4.60255 4.60255 0 0 0 4.575634-4.575634v-64.597188h64.597188a4.60255 4.60255 0 0 0 4.575634-4.575634v-32.110185a4.60255 4.60255 0 0 0-4.575634-4.575634h-64.597188v-64.597188a4.60255 4.60255 0 0 0-4.575634-4.575634z" fill="#2CCFA7" p-id="2467"></path></svg>